<svg width="22" height="22" viewBox="0 0 22 22" fill="none" xmlns="http://www.w3.org/2000/svg">
<path d="M15.8125 8.25H15.125V4.8125C15.125 3.71848 14.6904 2.66927 13.9168 1.89568C13.1432 1.1221 12.094 0.6875 11 0.6875C9.90598 0.6875 8.85677 1.1221 8.08318 1.89568C7.3096 2.66927 6.875 3.71848 6.875 4.8125V8.25H6.1875C5.4584 8.2508 4.75939 8.54078 4.24384 9.05634C3.72828 9.57189 3.4383 10.2709 3.4375 11V18.5625C3.4383 19.2916 3.72828 19.9906 4.24384 20.5062C4.75939 21.0217 5.4584 21.3117 6.1875 21.3125H15.8125C16.5416 21.3117 17.2406 21.0217 17.7562 20.5062C18.2717 19.9906 18.5617 19.2916 18.5625 18.5625V11C18.5617 10.2709 18.2717 9.57189 17.7562 9.05634C17.2406 8.54078 16.5416 8.2508 15.8125 8.25ZM13.75 8.25H8.25V4.8125C8.25 4.08315 8.53973 3.38368 9.05546 2.86796C9.57118 2.35223 10.2707 2.0625 11 2.0625C11.7293 2.0625 12.4288 2.35223 12.9445 2.86796C13.4603 3.38368 13.75 4.08315 13.75 4.8125V8.25Z" fill="black"/>
</svg>
