<svg width="25" height="25" viewBox="0 0 25 25" fill="none" xmlns="http://www.w3.org/2000/svg">
<path d="M16.4063 12.5C15.4024 12.5 14.4316 12.0518 13.6719 11.2383C12.9331 10.4448 12.4819 9.38672 12.4023 8.25977C12.3174 7.05762 12.6841 5.95215 13.4346 5.14648C14.1851 4.34082 15.2344 3.90625 16.4063 3.90625C17.5698 3.90625 18.6221 4.34863 19.3701 5.15234C20.1255 5.96387 20.4932 7.06738 20.4082 8.25928C20.3267 9.3877 19.876 10.4453 19.1387 11.2378C18.3809 12.0518 17.4107 12.5 16.4063 12.5ZM22.8433 21.0938H9.96973C9.76276 21.0949 9.55828 21.0485 9.37205 20.9581C9.18582 20.8678 9.02279 20.736 8.89551 20.5728C8.7605 20.3958 8.66727 20.1906 8.62279 19.9725C8.57832 19.7545 8.58375 19.5292 8.63868 19.3135C9.04981 17.6626 10.0684 16.2935 11.584 15.3545C12.9292 14.5215 14.6416 14.0625 16.4063 14.0625C18.2056 14.0625 19.8731 14.502 21.2261 15.3345C22.7451 16.2686 23.7651 17.6455 24.1743 19.3164C24.2286 19.5322 24.2334 19.7576 24.1884 19.9755C24.1435 20.1935 24.0498 20.3985 23.9146 20.5752C23.7874 20.7377 23.6248 20.8689 23.4391 20.9587C23.2534 21.0486 23.0496 21.0948 22.8433 21.0938ZM7.17774 12.6953C5.45948 12.6953 3.94874 11.0977 3.8086 9.13428C3.73926 8.12842 4.05274 7.19824 4.68751 6.51611C5.31544 5.84082 6.20118 5.46875 7.17774 5.46875C8.1543 5.46875 9.03321 5.84277 9.66456 6.52197C10.3042 7.20947 10.6167 8.1377 10.5435 9.13525C10.4033 11.0981 8.89307 12.6953 7.17774 12.6953ZM10.3838 14.231C9.52491 13.811 8.41016 13.6011 7.17823 13.6011C5.73975 13.6011 4.34278 13.9761 3.24415 14.6567C1.99854 15.4297 1.16065 16.5552 0.822271 17.9141C0.772752 18.1095 0.768069 18.3136 0.808571 18.5112C0.849073 18.7087 0.933712 18.8945 1.05616 19.0547C1.17234 19.2038 1.32119 19.3244 1.49125 19.407C1.66131 19.4896 1.84805 19.5321 2.03712 19.5313H7.45704C7.54852 19.5312 7.63709 19.4991 7.70731 19.4405C7.77754 19.3819 7.82496 19.3005 7.84131 19.2105C7.84669 19.1797 7.85352 19.1489 7.86133 19.1187C8.2754 17.4556 9.24561 16.0503 10.6792 15.0259C10.7319 14.9879 10.7743 14.9373 10.8026 14.8788C10.8308 14.8202 10.844 14.7556 10.841 14.6906C10.8379 14.6257 10.8187 14.5626 10.7851 14.5069C10.7515 14.4513 10.7045 14.405 10.6484 14.3721C10.5718 14.3271 10.4839 14.2798 10.3838 14.231Z" fill="black"/>
</svg>
