<svg width="25" height="25" viewBox="0 0 25 25" fill="none" xmlns="http://www.w3.org/2000/svg">
<path d="M12.5 2.34375C6.8999 2.34375 2.34375 6.8999 2.34375 12.5C2.34375 18.1001 6.8999 22.6562 12.5 22.6562C18.1001 22.6562 22.6562 18.1001 22.6562 12.5C22.6562 6.8999 18.1001 2.34375 12.5 2.34375ZM10.0479 8.04785C10.6665 7.39209 11.5371 7.03125 12.5 7.03125C13.4629 7.03125 14.3257 7.39453 14.9468 8.05371C15.5762 8.72168 15.8823 9.61914 15.8101 10.584C15.6655 12.5 14.1812 14.0625 12.5 14.0625C10.8188 14.0625 9.33154 12.5 9.18994 10.5835C9.11816 9.61084 9.42383 8.71045 10.0479 8.04785ZM12.5 21.0938C11.3528 21.0945 10.2171 20.8649 9.16023 20.4185C8.1034 19.9721 7.14697 19.3181 6.34766 18.4951C6.80545 17.8423 7.38875 17.2872 8.06348 16.8623C9.30811 16.0645 10.8833 15.625 12.5 15.625C14.1167 15.625 15.6919 16.0645 16.9351 16.8623C17.6103 17.287 18.1942 17.8421 18.6523 18.4951C17.8531 19.3181 16.8967 19.9723 15.8398 20.4187C14.783 20.865 13.6473 21.0946 12.5 21.0938Z" fill="black"/>
</svg>
